<svg xmlns="http://www.w3.org/2000/svg" width="233.63" height="302.853" viewBox="0 0 233.63 302.853">
  <g id="Grupo_1" data-name="Grupo 1" transform="translate(-19.212 -14.94)">
    <path id="Trazado_1" data-name="Trazado 1" d="M88.376,103.637l.555-.544V17.542a122.149,122.149,0,0,0-18.345-2.168q-9.662-.429-16.607-.434-6.3,0-16.392.434a113.613,113.613,0,0,0-18.345,2.168V54.926L26.56,61.32,75.4,103.991A9.552,9.552,0,0,0,88.376,103.637Z" fill="#858585"/>
    <path id="Trazado_2" data-name="Trazado 2" d="M244.375,287.836A56.819,56.819,0,0,1,237.753,276q-3.148-7.27-7.489-19.865l-17.8-53.623A106.766,106.766,0,0,0,200.3,176.246q-7.6-11.727-21.709-18.67-10.468-5.154-26.676-6.48L114.4,189.945a32.456,32.456,0,0,1,18.173,8.23q9.33,8.682,15.847,29.3l16.284,50.8q6.293,19.976,14.763,29.744t27.354,9.766a67.027,67.027,0,0,0,26.594-5.426q12.7-5.424,19.431-15.413A69.267,69.267,0,0,1,244.375,287.836Z" fill="#858585"/>
    <path id="Trazado_3" data-name="Trazado 3" d="M81.715,208.763,62.5,192.372l-8.954-7.637-34.3-29.26V314.1a145.7,145.7,0,0,0,18.345,2.063q10.1.539,16.392.54,6.944,0,16.607-.54A159.284,159.284,0,0,0,88.931,314.1V214.919Z" fill="#858585"/>
    <path id="Trazado_4" data-name="Trazado 4" d="M19.212,140.834l.03.026V72.787Z" fill="#ff702e"/>
    <path id="Trazado_5" data-name="Trazado 5" d="M240.478,39.864q-8.287-3.564-17.83-6.917t-16.655-5.554a43.721,43.721,0,0,0-12.72-2.224A20.02,20.02,0,0,0,185.7,26.5,39.346,39.346,0,0,0,176.61,32S103.146,104.979,88.931,118.6c-1.389,1.331-2.24,2.123-2.373,2.195a7.9,7.9,0,0,1-3.961,1.171,11.239,11.239,0,0,1-5.588-1.8L19.243,69.694V140.86l34.3,29.259,24.539,20.93L88.931,200.3,99.192,189.68l37.721-39.054,28.359-29.361c2.4-2,4.761-4.123,7.068-6.428L221.3,65.865l21.031-21.034Z" fill="#ff671d"/>
  </g>
</svg>
