<svg xmlns="http://www.w3.org/2000/svg" width="1241.576" height="446.833" viewBox="0 0 1241.576 446.833">
  <g id="Grupo_5" data-name="Grupo 5" transform="translate(-19.212 -14.94)">
    <g id="Grupo_1" data-name="Grupo 1">
      <path id="Trazado_1" data-name="Trazado 1" d="M88.376,103.637l.555-.544V17.542a122.149,122.149,0,0,0-18.345-2.168q-9.662-.429-16.607-.434-6.3,0-16.392.434a113.613,113.613,0,0,0-18.345,2.168V54.926L26.56,61.32,75.4,103.991A9.552,9.552,0,0,0,88.376,103.637Z" fill="#fff"/>
      <path id="Trazado_2" data-name="Trazado 2" d="M244.375,287.836A56.819,56.819,0,0,1,237.753,276q-3.148-7.27-7.489-19.865l-17.8-53.623A106.766,106.766,0,0,0,200.3,176.246q-7.6-11.727-21.709-18.67-10.468-5.154-26.676-6.48L114.4,189.945a32.456,32.456,0,0,1,18.173,8.23q9.33,8.682,15.847,29.3l16.284,50.8q6.293,19.976,14.763,29.744t27.354,9.766a67.027,67.027,0,0,0,26.594-5.426q12.7-5.424,19.431-15.413A69.267,69.267,0,0,1,244.375,287.836Z" fill="#fff"/>
      <path id="Trazado_3" data-name="Trazado 3" d="M81.715,208.763,62.5,192.372l-8.954-7.637-34.3-29.26V314.1a145.7,145.7,0,0,0,18.345,2.063q10.1.539,16.392.54,6.944,0,16.607-.54A159.284,159.284,0,0,0,88.931,314.1V214.919Z" fill="#fff"/>
      <path id="Trazado_4" data-name="Trazado 4" d="M19.212,140.834l.03.026V72.787Z" fill="#fff"/>
      <path id="Trazado_5" data-name="Trazado 5" d="M240.478,39.864q-8.287-3.564-17.83-6.917t-16.655-5.554a43.721,43.721,0,0,0-12.72-2.224A20.02,20.02,0,0,0,185.7,26.5,39.346,39.346,0,0,0,176.61,32S103.146,104.979,88.931,118.6c-1.389,1.331-2.24,2.123-2.373,2.195a7.9,7.9,0,0,1-3.961,1.171,11.239,11.239,0,0,1-5.588-1.8L19.243,69.694V140.86l34.3,29.259,24.539,20.93L88.931,200.3,99.192,189.68l37.721-39.054,28.359-29.361c2.4-2,4.761-4.123,7.068-6.428L221.3,65.865l21.031-21.034Z" fill="#fff"/>
    </g>
    <g id="Grupo_2" data-name="Grupo 2">
      <path id="Trazado_6" data-name="Trazado 6" d="M307.6,100.552h-9.14q-7.014,0-17.324.531t-20.088,1.593a79.873,79.873,0,0,0-2.125,12.012,116.966,116.966,0,0,0-.637,11.8,90.822,90.822,0,0,0,2.762,22.532h6.378q11.262,0,15.622,7.016t4.358,17.642V314.392q7.44,1.277,16.262,1.914t17.111.636q8.5,0,17.324-.636a149.2,149.2,0,0,0,15.837-1.914V151.355q0-23.38-12.437-37.093T307.6,100.552Z" fill="#fff"/>
      <path id="Trazado_7" data-name="Trazado 7" d="M556.678,100.658a165.467,165.467,0,0,0-17.643-.957q-6.169,0-13.391.638a74.915,74.915,0,0,0-12.756,2.125L475.9,267.415q-3.187,0-3.614-2.976-.85-7.016-2.443-17.324t-3.3-20.832a174.03,174.03,0,0,0-3.613-17.536l-19.98-81.837q-4.041-16.583-12.012-22.533t-20.086-5.952a107.612,107.612,0,0,0-19.556,2.127,92.566,92.566,0,0,0-21.469,6.8L419.36,290.584q4.251,14.883,15.623,20.726t28.591,6.057l-1.7,6.165a60.769,60.769,0,0,1-8.822,18.387,38.345,38.345,0,0,1-13.817,11.9,41.554,41.554,0,0,1-19.023,4.144,100.582,100.582,0,0,1-20.938-2.231q-10.521-2.233-17.324-4.357-6.593,7.652-10.523,21.893t-2.869,25.509a182.408,182.408,0,0,0,23.808,5.844,149.667,149.667,0,0,0,27.846,2.871q33.16,0,53.247-12.649t31.778-34.966q11.689-22.32,19.345-51.229l52.5-199.6-2.55-4.464A85.137,85.137,0,0,0,556.678,100.658Z" fill="#fff"/>
      <path id="Trazado_8" data-name="Trazado 8" d="M770.453,272.3a42.385,42.385,0,0,1-2.869-16.155V169.635q0-26.992-11.161-42.832a62.839,62.839,0,0,0-28.377-22.744,95.631,95.631,0,0,0-35.924-6.908,244.568,244.568,0,0,0-30.928,2.231,335.2,335.2,0,0,0-34.753,6.378,205.612,205.612,0,0,0-31.674,10.1,121.884,121.884,0,0,0,4.995,25.19q3.931,12.862,10.948,20.937,16.788-4.885,32.948-9.246a114.983,114.983,0,0,1,29.758-4.358q14.455,0,21.152,6.8t6.694,20.192v7.736c-2.049-.125-4.127-.232-6.269-.295q-14.563-.424-24.127-.425a107.688,107.688,0,0,0-41.131,7.864,71.084,71.084,0,0,0-31.14,24.127q-11.908,16.263-11.9,41.982a69.67,69.67,0,0,0,7.016,29.971,60.98,60.98,0,0,0,21.361,24.659q14.349,9.774,36.243,9.778,19.129,0,33.373-6.165a90.671,90.671,0,0,0,24.869-15.731c1.328-1.2,2.6-2.393,3.872-3.593a57.991,57.991,0,0,0,14.941,14.01q12.222,8.075,30.927,8.5,6.165-4.891,12.33-15.091t7.865-18.919A26.126,26.126,0,0,1,770.453,272.3Zm-99.587-.638q-8.928,0-14.242-5.632A19.779,19.779,0,0,1,651.31,251.9q0-11.9,6.165-19.45T677.88,224.9q8.5,0,21.364.32c.7.017,1.337.063,2.018.089V259.1c-1.451,1.2-2.929,2.36-4.463,3.424Q683.617,271.669,670.866,271.666Z" fill="#fff"/>
      <path id="Trazado_9" data-name="Trazado 9" d="M990.428,261.251V174.1q0-22.32-6.8-39.326T963.645,108.1q-13.182-9.67-32.734-9.672-22.535,0-40.069,11.692a239.378,239.378,0,0,0-19.95,14.918,44.864,44.864,0,0,0-6.408-12.687q-9.675-13.072-28.8-13.072H810.6l-2.977,2.975V314.392q7.44,1.277,16.262,1.914t17.111.636q8.5,0,17.324-.636a149.234,149.234,0,0,0,15.837-1.914V172.387a56.409,56.409,0,0,1,16.473-10.937q8.61-3.505,15.2-3.507,10.628,0,14.348,6.909t3.72,21.364v90.339q0,19.983,7.864,30.61t27.847,10.628a66.818,66.818,0,0,0,41.45-14.242,48.761,48.761,0,0,1-8.29-19.023A111.123,111.123,0,0,1,990.428,261.251Z" fill="#fff"/>
      <path id="Trazado_10" data-name="Trazado 10" d="M1201.017,272.3a42.385,42.385,0,0,1-2.87-16.155V169.635q0-26.992-11.159-42.832a62.845,62.845,0,0,0-28.379-22.744,95.622,95.622,0,0,0-35.923-6.908,244.553,244.553,0,0,0-30.928,2.231A335.26,335.26,0,0,0,1057,105.76a205.594,205.594,0,0,0-31.673,10.1,121.808,121.808,0,0,0,4.995,25.19q3.931,12.862,10.948,20.937,16.788-4.885,32.948-9.246a114.983,114.983,0,0,1,29.758-4.358q14.454,0,21.152,6.8t6.7,20.192v7.736c-2.05-.125-4.128-.232-6.27-.295q-14.563-.424-24.127-.425a107.689,107.689,0,0,0-41.131,7.864,71.093,71.093,0,0,0-31.141,24.127q-11.907,16.263-11.9,41.982a69.683,69.683,0,0,0,7.015,29.971,61,61,0,0,0,21.362,24.659q14.349,9.774,36.243,9.778,19.131,0,33.373-6.165a90.669,90.669,0,0,0,24.869-15.731c1.327-1.2,2.6-2.393,3.872-3.593a57.991,57.991,0,0,0,14.941,14.01q12.221,8.075,30.927,8.5,6.165-4.891,12.33-15.091t7.865-18.919A26.119,26.119,0,0,1,1201.017,272.3Zm-99.587-.638q-8.928,0-14.242-5.632a19.78,19.78,0,0,1-5.314-14.136q0-11.9,6.165-19.45t20.405-7.546q8.5,0,21.364.32c.7.017,1.337.063,2.019.089V259.1c-1.452,1.2-2.931,2.36-4.465,3.424Q1114.181,271.669,1101.43,271.666Z" fill="#fff"/>
    </g>
    <g id="Grupo_3" data-name="Grupo 3">
      <path id="Trazado_11" data-name="Trazado 11" d="M537.175,408.255a23.184,23.184,0,0,1,8.606,1.562,19.377,19.377,0,0,1,6.811,4.505,20.548,20.548,0,0,1,4.478,7.274,28.056,28.056,0,0,1,1.613,9.858,5.954,5.954,0,0,1-.46,2.868,1.917,1.917,0,0,1-1.741.716H521.966a28.533,28.533,0,0,0,1.332,8.552,17.443,17.443,0,0,0,3.38,6.069A13.518,13.518,0,0,0,531.8,453.3a17.536,17.536,0,0,0,6.657,1.2,19.623,19.623,0,0,0,5.916-.792,28.024,28.024,0,0,0,4.274-1.719,32.075,32.075,0,0,0,3-1.715,3.983,3.983,0,0,1,2.073-.793,2.009,2.009,0,0,1,1.741.869l2.562,3.332a17.415,17.415,0,0,1-4.044,3.559,25.235,25.235,0,0,1-5.048,2.482,31.976,31.976,0,0,1-5.555,1.46,33.779,33.779,0,0,1-5.683.485,26.346,26.346,0,0,1-9.912-1.817,21.735,21.735,0,0,1-7.833-5.326,24.424,24.424,0,0,1-5.15-8.679,35.385,35.385,0,0,1-1.843-11.884,30.288,30.288,0,0,1,1.664-10.139,23.956,23.956,0,0,1,4.789-8.168,22.038,22.038,0,0,1,7.632-5.428A25,25,0,0,1,537.175,408.255Zm.2,6.709q-6.6,0-10.394,3.814t-4.712,10.577H550.49a18.451,18.451,0,0,0-.869-5.814,13,13,0,0,0-2.562-4.559,11.492,11.492,0,0,0-4.121-2.97A13.918,13.918,0,0,0,537.379,414.964Z" fill="#fff"/>
      <path id="Trazado_12" data-name="Trazado 12" d="M576.167,460.952V416.858l-5.737-.667a4.581,4.581,0,0,1-1.767-.793,1.859,1.859,0,0,1-.69-1.562V410.1h8.194V407.23a24.731,24.731,0,0,1,1.485-8.731,18.278,18.278,0,0,1,4.457-6.839,20.354,20.354,0,0,1,7.4-4.453,33.087,33.087,0,0,1,14.289-1.326,17.494,17.494,0,0,1,3.508.786L607,391.43a.937.937,0,0,1-.617.824,4.78,4.78,0,0,1-1.482.176h-2.562q-9.066,0-13.187,3.753t-4.124,11.309V410.1H616.37v50.853h-9.117V416.7H585.335v44.247Z" fill="#fff"/>
      <path id="Trazado_13" data-name="Trazado 13" d="M671.647,418.292a4.047,4.047,0,0,1-.818.869,1.94,1.94,0,0,1-1.178.307,2.918,2.918,0,0,1-1.665-.639,25.384,25.384,0,0,0-2.277-1.409,19.389,19.389,0,0,0-3.355-1.408,17.808,17.808,0,0,0-11.548.718,12.987,12.987,0,0,0-4.891,3.917,17.691,17.691,0,0,0-2.97,6.2,30.664,30.664,0,0,0-1,8.143,29.713,29.713,0,0,0,1.076,8.373,18.083,18.083,0,0,0,3.022,6.146,12.864,12.864,0,0,0,4.738,3.789,14.585,14.585,0,0,0,6.27,1.306,16.1,16.1,0,0,0,5.482-.792,16.661,16.661,0,0,0,3.584-1.767,25.859,25.859,0,0,0,2.355-1.769,2.849,2.849,0,0,1,1.846-.793,1.935,1.935,0,0,1,1.741.869l2.559,3.332a19.724,19.724,0,0,1-8.449,6.066,29.948,29.948,0,0,1-10.705,1.92,22.651,22.651,0,0,1-9.037-1.792,20.628,20.628,0,0,1-7.249-5.2,24.691,24.691,0,0,1-4.839-8.373,33.717,33.717,0,0,1-1.767-11.318,34.229,34.229,0,0,1,1.613-10.7,24.267,24.267,0,0,1,4.712-8.475,21.41,21.41,0,0,1,7.657-5.555,25.788,25.788,0,0,1,10.446-2,24.623,24.623,0,0,1,9.629,1.767,22.96,22.96,0,0,1,7.427,4.993Z" fill="#fff"/>
      <path id="Trazado_14" data-name="Trazado 14" d="M699.2,392.788a5.818,5.818,0,0,1-.537,2.485,7.174,7.174,0,0,1-1.434,2.048,6.7,6.7,0,0,1-2.074,1.408,6.216,6.216,0,0,1-2.51.512,6.024,6.024,0,0,1-2.483-.512,6.825,6.825,0,0,1-3.459-3.456,6.047,6.047,0,0,1-.511-2.485,6.415,6.415,0,0,1,.511-2.537,6.59,6.59,0,0,1,1.409-2.1,6.743,6.743,0,0,1,2.05-1.408,6.072,6.072,0,0,1,2.483-.511,6.266,6.266,0,0,1,2.51.511,6.694,6.694,0,0,1,2.074,1.408,6.953,6.953,0,0,1,1.434,2.1A6.17,6.17,0,0,1,699.2,392.788Zm-2.048,16.285v51.879h-9.117V409.073Z" fill="#fff"/>
      <path id="Trazado_15" data-name="Trazado 15" d="M736.738,408.255a23.184,23.184,0,0,1,8.606,1.562,19.377,19.377,0,0,1,6.811,4.505,20.549,20.549,0,0,1,4.478,7.274,28.054,28.054,0,0,1,1.614,9.858,5.966,5.966,0,0,1-.46,2.868,1.918,1.918,0,0,1-1.741.716H721.529a28.531,28.531,0,0,0,1.332,8.552,17.441,17.441,0,0,0,3.38,6.069,13.518,13.518,0,0,0,5.121,3.636,17.54,17.54,0,0,0,6.657,1.2,19.622,19.622,0,0,0,5.916-.792,28.08,28.08,0,0,0,4.275-1.719,32.179,32.179,0,0,0,3-1.715,3.983,3.983,0,0,1,2.073-.793,2.009,2.009,0,0,1,1.741.869l2.562,3.332a17.394,17.394,0,0,1-4.044,3.559,25.256,25.256,0,0,1-5.047,2.482,31.989,31.989,0,0,1-5.556,1.46,33.77,33.77,0,0,1-5.683.485,26.346,26.346,0,0,1-9.912-1.817,21.734,21.734,0,0,1-7.833-5.326,24.423,24.423,0,0,1-5.15-8.679,35.385,35.385,0,0,1-1.843-11.884,30.263,30.263,0,0,1,1.665-10.139,23.937,23.937,0,0,1,4.788-8.168,22.038,22.038,0,0,1,7.632-5.428A25.008,25.008,0,0,1,736.738,408.255Zm.205,6.709q-6.6,0-10.4,3.814t-4.712,10.577h28.217a18.453,18.453,0,0,0-.869-5.814,12.982,12.982,0,0,0-2.562-4.559,11.484,11.484,0,0,0-4.121-2.97A13.916,13.916,0,0,0,736.943,414.964Z" fill="#fff"/>
      <path id="Trazado_16" data-name="Trazado 16" d="M773.427,460.952V409.073h5.427a2.325,2.325,0,0,1,2.457,1.895l.719,5.635a29.085,29.085,0,0,1,7.555-6.044,19.629,19.629,0,0,1,9.65-2.3,18.792,18.792,0,0,1,7.5,1.406,14.522,14.522,0,0,1,5.427,4,17.6,17.6,0,0,1,3.3,6.223,27.124,27.124,0,0,1,1.127,8.041v33.031h-9.114V427.921q0-5.889-2.689-9.143t-8.22-3.252a15.328,15.328,0,0,0-7.555,1.946,24.978,24.978,0,0,0-6.478,5.274v38.206Z" fill="#fff"/>
      <path id="Trazado_17" data-name="Trazado 17" d="M848.964,461.773q-6.142,0-9.449-3.434t-3.3-9.884V416.7h-6.245a2.028,2.028,0,0,1-1.383-.489,1.881,1.881,0,0,1-.565-1.508V411.07l8.5-1.074,2.1-16.03a1.939,1.939,0,0,1,.665-1.255,2.12,2.12,0,0,1,1.434-.486h4.61V410.1H860.18V416.7H845.329v31.137a6.628,6.628,0,0,0,1.587,4.865,5.552,5.552,0,0,0,4.1,1.587,7.229,7.229,0,0,0,2.482-.383,10.656,10.656,0,0,0,1.817-.846c.515-.307.949-.588,1.307-.844a1.69,1.69,0,0,1,.949-.386,1.565,1.565,0,0,1,1.278.872l2.664,4.354a17.054,17.054,0,0,1-5.683,3.456A19.37,19.37,0,0,1,848.964,461.773Z" fill="#fff"/>
      <path id="Trazado_18" data-name="Trazado 18" d="M894.06,408.255a23.18,23.18,0,0,1,8.606,1.562,19.368,19.368,0,0,1,6.811,4.505,20.564,20.564,0,0,1,4.479,7.274,28.078,28.078,0,0,1,1.613,9.858,5.954,5.954,0,0,1-.46,2.868,1.918,1.918,0,0,1-1.741.716H878.852a28.531,28.531,0,0,0,1.332,8.552,17.424,17.424,0,0,0,3.379,6.069,13.534,13.534,0,0,0,5.121,3.636,17.543,17.543,0,0,0,6.657,1.2,19.625,19.625,0,0,0,5.917-.792,28.108,28.108,0,0,0,4.274-1.719,31.918,31.918,0,0,0,3-1.715,3.983,3.983,0,0,1,2.074-.793,2.01,2.01,0,0,1,1.741.869l2.562,3.332a17.4,17.4,0,0,1-4.045,3.559,25.229,25.229,0,0,1-5.047,2.482,32,32,0,0,1-5.555,1.46,33.787,33.787,0,0,1-5.683.485,26.348,26.348,0,0,1-9.913-1.817,21.743,21.743,0,0,1-7.833-5.326,24.422,24.422,0,0,1-5.149-8.679,35.361,35.361,0,0,1-1.843-11.884,30.264,30.264,0,0,1,1.664-10.139,23.956,23.956,0,0,1,4.789-8.168,22.025,22.025,0,0,1,7.631-5.428A25.011,25.011,0,0,1,894.06,408.255Zm.205,6.709q-6.6,0-10.4,3.814t-4.712,10.577h28.217a18.423,18.423,0,0,0-.869-5.814,12.965,12.965,0,0,0-2.562-4.559,11.474,11.474,0,0,0-4.121-2.97A13.91,13.91,0,0,0,894.265,414.964Z" fill="#fff"/>
      <path id="Trazado_19" data-name="Trazado 19" d="M930.51,460.952V408.409h7.734a3.105,3.105,0,0,1,3.226,2.3l.818,3.891a30.378,30.378,0,0,1,2.894-2.815,18.8,18.8,0,0,1,3.226-2.2,17.73,17.73,0,0,1,3.687-1.46,16.491,16.491,0,0,1,4.328-.536,12.263,12.263,0,0,1,8.169,2.69,16.168,16.168,0,0,1,4.788,7.142,16.093,16.093,0,0,1,3.073-4.481,16.845,16.845,0,0,1,4.045-3.045,18.554,18.554,0,0,1,4.686-1.741,22.449,22.449,0,0,1,4.993-.565,20.966,20.966,0,0,1,7.734,1.332,14.843,14.843,0,0,1,5.686,3.891,17.176,17.176,0,0,1,3.508,6.248,27.257,27.257,0,0,1,1.2,8.45v33.443h-12.65V427.509q0-5.018-2.205-7.552A8.082,8.082,0,0,0,983,417.42a9.623,9.623,0,0,0-3.61.668,8.61,8.61,0,0,0-2.92,1.92,8.765,8.765,0,0,0-1.971,3.15,12.211,12.211,0,0,0-.716,4.351v33.443h-12.7V427.509q0-5.271-2.124-7.68t-6.274-2.409a10.127,10.127,0,0,0-5.095,1.358,17.164,17.164,0,0,0-4.431,3.712v38.462Z" fill="#fff"/>
      <path id="Trazado_20" data-name="Trazado 20" d="M1037.445,407.588a25.544,25.544,0,0,1,9.14,1.587,20.072,20.072,0,0,1,7.2,4.636,21.163,21.163,0,0,1,4.709,7.478,28.21,28.21,0,0,1,1.693,10.114,18.082,18.082,0,0,1-.131,2.38,3.749,3.749,0,0,1-.46,1.485,1.869,1.869,0,0,1-.9.77,3.847,3.847,0,0,1-1.434.23H1024.8q.561,8.092,4.351,11.88a13.573,13.573,0,0,0,10.04,3.789,17.353,17.353,0,0,0,5.3-.716,24.865,24.865,0,0,0,3.891-1.587q1.662-.873,2.92-1.588a4.921,4.921,0,0,1,2.434-.716,2.739,2.739,0,0,1,1.329.307,2.963,2.963,0,0,1,.974.869l3.687,4.61a21.1,21.1,0,0,1-4.712,4.124,26.469,26.469,0,0,1-5.453,2.661,29.631,29.631,0,0,1-5.789,1.409,41.242,41.242,0,0,1-5.708.408,28.014,28.014,0,0,1-10.191-1.817,22.753,22.753,0,0,1-8.194-5.377,25.241,25.241,0,0,1-5.481-8.807,34.068,34.068,0,0,1-2-12.164,29.1,29.1,0,0,1,1.741-10.114,24.265,24.265,0,0,1,4.993-8.245,23.551,23.551,0,0,1,7.938-5.559A26.176,26.176,0,0,1,1037.445,407.588Zm.256,9.066q-5.535,0-8.657,3.124a15.406,15.406,0,0,0-3.993,8.858h23.764a15.774,15.774,0,0,0-.668-4.635,10.717,10.717,0,0,0-2.048-3.814,9.725,9.725,0,0,0-3.482-2.588A11.917,11.917,0,0,0,1037.7,416.654Z" fill="#fff"/>
      <path id="Trazado_21" data-name="Trazado 21" d="M1069.448,460.952V408.409h7.734a3.105,3.105,0,0,1,3.226,2.3l.869,4.15a29.04,29.04,0,0,1,3.357-2.971,23.5,23.5,0,0,1,3.738-2.307,19.094,19.094,0,0,1,4.223-1.485,22.358,22.358,0,0,1,4.916-.511,18.81,18.81,0,0,1,7.632,1.46,15.07,15.07,0,0,1,5.558,4.1,18.056,18.056,0,0,1,3.38,6.3,26.819,26.819,0,0,1,1.15,8.066v33.443h-12.647V427.509q0-4.812-2.23-7.45t-6.682-2.639a13.186,13.186,0,0,0-6.147,1.486,21.986,21.986,0,0,0-5.427,4.047v38Z" fill="#fff"/>
      <path id="Trazado_22" data-name="Trazado 22" d="M1143.911,461.773q-6.813,0-10.5-3.869t-3.686-10.676V417.88H1124.4a2.425,2.425,0,0,1-2.51-2.661V410.2l8.449-1.383,2.664-14.34a2.544,2.544,0,0,1,.949-1.588,3.007,3.007,0,0,1,1.869-.562h6.555v16.541H1156.2v9.011h-13.826v28.476a5.568,5.568,0,0,0,1.23,3.84,4.159,4.159,0,0,0,3.277,1.383,5.957,5.957,0,0,0,1.971-.281,10.969,10.969,0,0,0,1.383-.588c.39-.2.742-.4,1.048-.591a1.794,1.794,0,0,1,.923-.281,1.455,1.455,0,0,1,.92.281,4.281,4.281,0,0,1,.77.847l3.789,6.146a19.147,19.147,0,0,1-6.351,3.482A23.607,23.607,0,0,1,1143.911,461.773Z" fill="#fff"/>
      <path id="Trazado_23" data-name="Trazado 23" d="M1186.983,407.588a25.539,25.539,0,0,1,9.139,1.587,20.055,20.055,0,0,1,7.2,4.636,21.132,21.132,0,0,1,4.709,7.478,28.188,28.188,0,0,1,1.693,10.114,18.082,18.082,0,0,1-.131,2.38,3.733,3.733,0,0,1-.46,1.485,1.866,1.866,0,0,1-.894.77,3.849,3.849,0,0,1-1.435.23h-32.468q.56,8.092,4.35,11.88a13.574,13.574,0,0,0,10.041,3.789,17.351,17.351,0,0,0,5.3-.716,24.777,24.777,0,0,0,3.891-1.587q1.664-.873,2.92-1.588a4.921,4.921,0,0,1,2.434-.716,2.738,2.738,0,0,1,1.329.307,2.954,2.954,0,0,1,.974.869l3.687,4.61a21.085,21.085,0,0,1-4.712,4.124,26.463,26.463,0,0,1-5.453,2.661,29.622,29.622,0,0,1-5.788,1.409,41.27,41.27,0,0,1-5.709.408,28.013,28.013,0,0,1-10.19-1.817,22.735,22.735,0,0,1-8.194-5.377,25.229,25.229,0,0,1-5.482-8.807,34.089,34.089,0,0,1-2-12.164,29.127,29.127,0,0,1,1.741-10.114,24.265,24.265,0,0,1,4.993-8.245,23.555,23.555,0,0,1,7.939-5.559A26.17,26.17,0,0,1,1186.983,407.588Zm.255,9.066q-5.534,0-8.657,3.124a15.4,15.4,0,0,0-3.993,8.858h23.764a15.77,15.77,0,0,0-.668-4.635,10.715,10.715,0,0,0-2.047-3.814,9.734,9.734,0,0,0-3.482-2.588A11.925,11.925,0,0,0,1187.238,416.654Z" fill="#fff"/>
    </g>
    <path id="Trazado_24" data-name="Trazado 24" d="M272.477,45.584a62.709,62.709,0,0,1,1.243-12.113,69.8,69.8,0,0,1,3.518-12.114A60.451,60.451,0,0,1,291.214,16.8a79.408,79.408,0,0,1,16.875-1.862A83.278,83.278,0,0,1,325.378,16.8q8.8,1.865,13.562,4.555a69.091,69.091,0,0,1,3.52,12.321A64.094,64.094,0,0,1,343.7,45.584a63.4,63.4,0,0,1-1.243,12.008A64.117,64.117,0,0,1,338.94,69.6q-4.766,2.693-13.562,4.555a83.277,83.277,0,0,1-17.289,1.862,88.359,88.359,0,0,1-17.185-1.76Q282,72.5,277.238,69.6a63.742,63.742,0,0,1-3.518-12.009A63.319,63.319,0,0,1,272.477,45.584Z" fill="#fff"/>
    <g id="Grupo_4" data-name="Grupo 4">
      <path id="Trazado_25" data-name="Trazado 25" d="M1210.311,49.4a24.848,24.848,0,0,1,3.358-12.794,25.229,25.229,0,0,1,9.087-9.114,25.8,25.8,0,0,1,25.537,0,25.42,25.42,0,0,1,9.114,9.114,24.691,24.691,0,0,1,3.381,12.794,24.61,24.61,0,0,1-3.381,12.743,25.229,25.229,0,0,1-9.114,9.087,25.159,25.159,0,0,1-37.982-21.83Zm5.632,0a20.242,20.242,0,0,0,2.568,10.1,19.658,19.658,0,0,0,7.015,7.286,19.838,19.838,0,0,0,20.052,0,19.736,19.736,0,0,0,7.015-7.286,21.242,21.242,0,0,0,0-20.249,19.937,19.937,0,0,0-7.015-7.309,19.7,19.7,0,0,0-20.052,0,19.858,19.858,0,0,0-7.015,7.309A20.352,20.352,0,0,0,1215.943,49.4Zm29.29-5.287a5.827,5.827,0,0,1-1.58,4.3,8.558,8.558,0,0,1-3.459,2.172,3.839,3.839,0,0,1,1.53,1.158,28.2,28.2,0,0,1,1.727,2.844l1.585,2.811q.441.792.96,1.534a5.2,5.2,0,0,0,1.112,1.186,4.948,4.948,0,0,1-1.383,1.332,3.646,3.646,0,0,1-2.072.592,2.55,2.55,0,0,1-1.98-.813,9.887,9.887,0,0,1-1.429-2.2l-2.568-4.791a4.571,4.571,0,0,0-1.263-1.457,3.194,3.194,0,0,0-1.948-.569h-5.384V48.161c.887-.069,1.98-.1,3.285-.1h3.184a4.666,4.666,0,0,0,3.408-1.084,3.569,3.569,0,0,0,1.089-2.618,3.725,3.725,0,0,0-.988-2.545,3.976,3.976,0,0,0-3.114-1.112h-4.493V61.547a9.706,9.706,0,0,1-2.619.344,9.154,9.154,0,0,1-2.568-.344v-24.4l.294-.294c1.484-.069,3.087-.115,4.819-.152s3.3-.046,4.714-.046q4.548,0,6.844,1.975A6.843,6.843,0,0,1,1245.233,44.109Z" fill="#fff"/>
    </g>
  </g>
</svg>
