<svg xmlns="http://www.w3.org/2000/svg" width="30" height="30" viewBox="0 0 30 30"><defs><style>.a{fill:#fff;}</style></defs><path class="a" d="M15.816,19.092a.487.487,0,0,0-.648-.231,7.748,7.748,0,0,1-1.231.46.486.486,0,0,0-.346.373l-.515,2.573a.547.547,0,0,1-.535.439h-1.4a.547.547,0,0,1-.535-.439l-.515-2.573a.487.487,0,0,0-.346-.373,7.731,7.731,0,0,1-1.709-.708.487.487,0,0,0-.509.019L5.341,20.088a.547.547,0,0,1-.688-.068l-.993-.993a.547.547,0,0,1-.068-.688l1.456-2.184a.486.486,0,0,0,.019-.509,7.729,7.729,0,0,1-.708-1.709.486.486,0,0,0-.373-.346l-2.573-.515a.547.547,0,0,1-.439-.535v-1.4a.547.547,0,0,1,.439-.535l2.573-.515a.487.487,0,0,0,.373-.346,7.731,7.731,0,0,1,.708-1.709.487.487,0,0,0-.019-.509L3.591,5.341a.547.547,0,0,1,.068-.688l.993-.993a.547.547,0,0,1,.688-.068L7.525,5.047a.487.487,0,0,0,.509.019,7.731,7.731,0,0,1,1.709-.708.486.486,0,0,0,.346-.373L10.6,1.411a.547.547,0,0,1,.535-.439h1.4a.547.547,0,0,1,.535.439l.515,2.573a.487.487,0,0,0,.346.373,7.731,7.731,0,0,1,1.709.708.487.487,0,0,0,.509-.019l2.184-1.456a.547.547,0,0,1,.688.068l.993.993a.547.547,0,0,1,.068.688L18.632,7.525a.486.486,0,0,0-.019.509,7.731,7.731,0,0,1,.708,1.709.486.486,0,0,0,.373.346l2.573.515a.547.547,0,0,1,.439.535v1.4a.547.547,0,0,1-.439.535l-2.573.515a.487.487,0,0,0-.373.346,7.744,7.744,0,0,1-.474,1.26.487.487,0,1,0,.877.421,8.727,8.727,0,0,0,.448-1.13l2.287-.457a1.523,1.523,0,0,0,1.221-1.489v-1.4a1.523,1.523,0,0,0-1.221-1.489l-2.286-.457a8.707,8.707,0,0,0-.568-1.37L20.9,5.88a1.523,1.523,0,0,0-.19-1.916l-.993-.993a1.523,1.523,0,0,0-1.916-.19l-1.94,1.294a8.712,8.712,0,0,0-1.37-.568l-.457-2.286A1.523,1.523,0,0,0,12.542,0h-1.4A1.523,1.523,0,0,0,9.648,1.221L9.191,3.507a8.706,8.706,0,0,0-1.37.568L5.88,2.782a1.523,1.523,0,0,0-1.916.19l-.993.993a1.523,1.523,0,0,0-.19,1.916l1.294,1.94a8.71,8.71,0,0,0-.568,1.37l-2.287.457A1.523,1.523,0,0,0,0,11.138v1.4a1.523,1.523,0,0,0,1.221,1.489l2.286.457a8.706,8.706,0,0,0,.568,1.37L2.782,17.8a1.523,1.523,0,0,0,.19,1.916l.993.993a1.523,1.523,0,0,0,1.916.19L7.821,19.6a8.71,8.71,0,0,0,1.37.568l.457,2.287a1.523,1.523,0,0,0,1.489,1.221h1.4a1.523,1.523,0,0,0,1.489-1.221l.457-2.286a8.717,8.717,0,0,0,1.1-.432A.487.487,0,0,0,15.816,19.092Z"/><path class="a" d="M139.023,114.017a.486.486,0,0,0,.655-.211,5.47,5.47,0,0,0-8.687-6.409.487.487,0,0,0,.679.7,4.5,4.5,0,0,1,7.142,5.268A.487.487,0,0,0,139.023,114.017Z" transform="translate(-123.269 -99.703)"/><path class="a" d="M106.76,161.709a.486.486,0,0,0-.618.3,5.47,5.47,0,0,0,8.378,6.213.487.487,0,0,0-.571-.788,4.5,4.5,0,0,1-6.887-5.108A.486.486,0,0,0,106.76,161.709Z" transform="translate(-99.711 -152.293)"/><path class="a" d="M262.873,254.261l-1.407-.281a5.89,5.89,0,0,0-.309-.745l.8-1.194a1.168,1.168,0,0,0-.146-1.47l-.652-.652a1.168,1.168,0,0,0-1.47-.146l-1.194.8a5.875,5.875,0,0,0-.745-.309l-.281-1.407a1.168,1.168,0,0,0-1.142-.936H255.4a1.168,1.168,0,0,0-1.142.936l-.281,1.407a5.89,5.89,0,0,0-.745.309l-1.194-.8a1.168,1.168,0,0,0-1.47.146l-.652.652a1.168,1.168,0,0,0-.146,1.47l.8,1.194a5.878,5.878,0,0,0-.4,1.034.487.487,0,1,0,.937.262,4.91,4.91,0,0,1,.45-1.086.487.487,0,0,0-.019-.509l-.957-1.435a.192.192,0,0,1,.024-.242l.652-.652a.192.192,0,0,1,.242-.024l1.435.957a.487.487,0,0,0,.509.019,4.909,4.909,0,0,1,1.086-.45.486.486,0,0,0,.346-.373l.338-1.691a.192.192,0,0,1,.188-.154h.923a.192.192,0,0,1,.188.154l.338,1.691a.487.487,0,0,0,.346.373,4.91,4.91,0,0,1,1.086.45.487.487,0,0,0,.509-.019l1.435-.957a.192.192,0,0,1,.242.024l.652.652a.192.192,0,0,1,.024.242l-.957,1.435a.486.486,0,0,0-.019.509,4.914,4.914,0,0,1,.45,1.086.486.486,0,0,0,.373.346l1.691.338a.192.192,0,0,1,.154.188v.923a.192.192,0,0,1-.154.188l-1.691.338a.487.487,0,0,0-.373.346,4.911,4.911,0,0,1-.45,1.086.487.487,0,0,0,.019.509l.957,1.435a.192.192,0,0,1-.024.242l-.652.652a.192.192,0,0,1-.242.024l-1.435-.957a.487.487,0,0,0-.509-.019,4.912,4.912,0,0,1-1.086.45.486.486,0,0,0-.346.373l-.338,1.691a.192.192,0,0,1-.188.154H255.4a.192.192,0,0,1-.188-.154l-.338-1.691a.487.487,0,0,0-.346-.373,4.91,4.91,0,0,1-1.086-.45.487.487,0,0,0-.509.019l-1.435.957a.192.192,0,0,1-.242-.024l-.652-.652a.192.192,0,0,1-.024-.242l.957-1.435a.486.486,0,0,0,.019-.509,4.911,4.911,0,0,1-.45-1.086.486.486,0,0,0-.373-.346l-1.691-.338a.192.192,0,0,1-.154-.188V255.4a.192.192,0,0,1,.154-.188l.1-.021a.487.487,0,1,0-.191-.954l-.1.021a1.168,1.168,0,0,0-.936,1.142v.923a1.168,1.168,0,0,0,.936,1.142l1.407.281a5.9,5.9,0,0,0,.309.745l-.8,1.194a1.168,1.168,0,0,0,.146,1.47l.652.652a1.168,1.168,0,0,0,1.47.146l1.194-.8a5.872,5.872,0,0,0,.745.309l.281,1.407a1.168,1.168,0,0,0,1.142.936h.923a1.168,1.168,0,0,0,1.142-.936l.281-1.407a5.888,5.888,0,0,0,.745-.309l1.194.8a1.168,1.168,0,0,0,1.47-.146l.652-.652a1.168,1.168,0,0,0,.146-1.47l-.8-1.194a5.866,5.866,0,0,0,.309-.745l1.407-.281a1.168,1.168,0,0,0,.936-1.142V255.4A1.168,1.168,0,0,0,262.873,254.261Z" transform="translate(-233.809 -233.811)"/><path class="a" d="M337.41,335.659a1.754,1.754,0,0,1,1.752,1.752.487.487,0,0,0,.973,0,2.725,2.725,0,1,0-2.725,2.725,2.7,2.7,0,0,0,1.665-.567.487.487,0,1,0-.595-.77,1.735,1.735,0,0,1-1.07.364,1.752,1.752,0,1,1,0-3.5Z" transform="translate(-315.189 -315.19)"/><path class="a" d="M153.392,150.427a2.964,2.964,0,1,0-2.964,2.964A2.968,2.968,0,0,0,153.392,150.427Zm-4.956,0a1.991,1.991,0,1,1,1.991,1.991A1.994,1.994,0,0,1,148.436,150.427Z" transform="translate(-138.878 -138.878)"/></svg>