<svg xmlns="http://www.w3.org/2000/svg" width="82.732" height="74.066" viewBox="0 0 82.732 74.066">
  <path id="medical" d="M78.338,10.814A22.625,22.625,0,0,0,62.044,4a21.483,21.483,0,0,0-16,6.814L43.379,13.48l-2.666-2.666A21.483,21.483,0,0,0,24.714,4a21.483,21.483,0,0,0-16,6.814c-8.888,9.184-8.888,24,0,32.885l31.7,33.182a3.8,3.8,0,0,0,2.963,1.185,5.264,5.264,0,0,0,2.963-1.185L78.338,44A24.58,24.58,0,0,0,78.338,10.814ZM64.118,39.552H55.23a3.657,3.657,0,0,1-2.37-1.185l-2.666-4.148L46.342,43.7a3.929,3.929,0,0,1-2.963,1.778h0A2.847,2.847,0,0,1,40.713,43.7l-4.148-8.3L33.6,38.367a2.237,2.237,0,0,1-2.074,1.185H22.64a2.963,2.963,0,1,1,0-5.925h7.7L35.38,28.59a3.621,3.621,0,0,1,2.666-.889,3.779,3.779,0,0,1,2.074,1.481l2.963,5.925,3.555-8.592a2.943,2.943,0,0,1,2.37-1.778,2.888,2.888,0,0,1,2.666,1.185l5.037,7.7h7.407a2.963,2.963,0,1,1,0,5.925Z" transform="translate(-2.05 -4)" fill="#fff"/>
</svg>
