<svg xmlns="http://www.w3.org/2000/svg" width="129.714" height="113.95" viewBox="0 0 129.714 113.95">
  <g id="Grupo_70" data-name="Grupo 70" transform="translate(-0.798 -0.299)">
    <path id="Trazado_193" data-name="Trazado 193" d="M77.235,95.055,65.559,106.908,20.416,62.461A47.675,47.675,0,0,1,6.839,35.523a29.748,29.748,0,0,1,6.217-18.1,30.262,30.262,0,0,1,49.855,2.948,2.84,2.84,0,0,0,1.044.991,2.869,2.869,0,0,0,1.4.356A2.925,2.925,0,0,0,67.8,20.371a30.2,30.2,0,0,1,49.844-2.983,29.68,29.68,0,0,1,6.16,18.136,40.208,40.208,0,0,1-6.788,18.317A30.064,30.064,0,0,1,122.309,56a43.6,43.6,0,0,0,6.788-20.2,35.3,35.3,0,0,0-6.692-20.672,35.94,35.94,0,0,0-57.458-.946,35.936,35.936,0,0,0-57.458.946A35.3,35.3,0,0,0,.8,35.793,53.236,53.236,0,0,0,16,66.905L62.911,113.44a2.885,2.885,0,0,0,4.005,0L79.34,101.116A28.6,28.6,0,0,1,77.235,95.055Z" transform="translate(0 0)" fill="#ffffff"/>
    <path id="Trazado_194" data-name="Trazado 194" d="M65.3,75.9a8.779,8.779,0,0,1-5.914-3.058,8.642,8.642,0,0,1-2.028-6.3V61.287H52a8.126,8.126,0,0,1-6.52-1.814,8,8,0,0,1,3.059-13.815,8.141,8.141,0,0,1,3.46-.2h5.363v-5.32a7.97,7.97,0,0,1,1.829-6.467,8.09,8.09,0,0,1,13.926,3.035,7.955,7.955,0,0,1,.2,3.433v5.32h5.295a8.124,8.124,0,0,1,6.519,1.814A8,8,0,0,1,82.069,61.09a8.141,8.141,0,0,1-3.46.2H73.313V66.54a8.709,8.709,0,0,1-2.073,6.307A8.848,8.848,0,0,1,65.3,75.9ZM51.726,51.051c-2.172,0-3.8,1.212-3.8,2.29s1.629,2.29,3.8,2.29h8.146a2.863,2.863,0,0,1,2.016.828,2.817,2.817,0,0,1,.835,2V66.54c0,2.155,1.222,3.771,2.308,3.771s2.308-1.616,2.308-3.771V58.324a2.817,2.817,0,0,1,.835-2,2.863,2.863,0,0,1,2.016-.828h8.146c2.172,0,3.8-1.212,3.8-2.29s-1.629-2.29-3.8-2.29H70.53a2.863,2.863,0,0,1-2.016-.829,2.817,2.817,0,0,1-.835-2V40.006c0-2.155-1.222-3.771-2.308-3.771s-2.308,1.616-2.308,3.771v8.081a2.817,2.817,0,0,1-.835,2,2.864,2.864,0,0,1-2.016.829Z" transform="translate(42.547 31.074)" fill="#ffffff"/>
  </g>
</svg>
