<svg xmlns="http://www.w3.org/2000/svg" width="30" height="26.151" viewBox="0 0 30 26.151"><defs><style>.a{fill:#fff;}</style></defs><path class="a" d="M27.507,22.892,22.73,20.622A1.246,1.246,0,0,1,22,19.5V17.889c.115-.133.235-.285.36-.452a10.692,10.692,0,0,0,1.477-2.757A1.884,1.884,0,0,0,25,12.96v-1.9a1.844,1.844,0,0,0-.5-1.248V7.281a4.114,4.114,0,0,0-1.046-3.1C22.427,3.065,20.76,2.5,18.5,2.5s-3.927.565-4.954,1.678a4.026,4.026,0,0,0-1.032,2.285A6.774,6.774,0,0,0,9.5,5.828c-5.194,0-5.5,4.21-5.5,4.279v2.177a1.616,1.616,0,0,0-.5,1.108v1.642a1.666,1.666,0,0,0,.655,1.315,7.229,7.229,0,0,0,1.822,2.988v1.3a1.028,1.028,0,0,1-.585.911L2.066,23.537A3.744,3.744,0,0,0,0,26.845v1.805H30V26.728A4.25,4.25,0,0,0,27.507,22.892ZM7,26.636V27.7H1v-.854a2.814,2.814,0,0,1,1.571-2.488L5.9,22.373a1.958,1.958,0,0,0,1.081-1.731V18.935l-.159-.141a6.3,6.3,0,0,1-1.734-2.831l-.046-.188-.171-.1a.748.748,0,0,1-.367-.634V13.393a.821.821,0,0,1,.336-.558L5,12.693V10.135c.009-.136.269-3.356,4.5-3.356a5.407,5.407,0,0,1,3,.782V9.81a1.844,1.844,0,0,0-.5,1.248v1.9a1.822,1.822,0,0,0,.05.425c.013.055.04.106.059.159a1.818,1.818,0,0,0,.088.238l0,0a1.925,1.925,0,0,0,.55.655c0,.009.005.017.008.026.03.109.062.217.1.323l.04.124c.007.022.016.044.023.066.017.051.034.1.053.153.03.083.061.169.1.263.016.039.033.074.048.113.041.1.082.2.125.291.01.023.019.048.03.07l.028.06c.013.028.026.052.039.079.049.1.1.2.147.3l.024.047c.031.059.063.116.094.173.054.1.107.19.16.28l.077.128c.072.117.14.224.207.324l.042.064c.121.178.226.323.313.436l.063.081.035.046v1.573a1.248,1.248,0,0,1-.689,1.1l-1.323.686-.231-.019-.094.188L9.35,22.869A4.262,4.262,0,0,0,7,26.636ZM29,27.7H8V26.636A3.315,3.315,0,0,1,9.83,23.7l4.46-2.314a2.194,2.194,0,0,0,1.21-1.938v-1.91h0l-.1-.11-.019-.021s-.032-.037-.082-.1l-.01-.011c-.026-.033-.058-.072-.093-.119l0,0c-.074-.1-.168-.226-.272-.38l-.007-.01c-.049-.073-.1-.152-.154-.236l-.012-.019c-.113-.18-.233-.384-.352-.61h0c-.064-.121-.127-.249-.189-.381h0l-.026-.055h0c-.028-.059-.055-.122-.083-.186l-.03-.071c-.026-.062-.052-.125-.081-.2-.051-.129-.1-.264-.145-.4l-.028-.085-.009-.029c-.047-.15-.092-.3-.13-.462l-.045-.188-.171-.1a.938.938,0,0,1-.463-.8v-1.9a.919.919,0,0,1,.335-.7l.165-.141V7.086l-.014-.01A3.183,3.183,0,0,1,14.3,4.806c.829-.9,2.243-1.355,4.2-1.355S21.864,3.9,22.693,4.8a3.228,3.228,0,0,1,.812,2.4l0,3.024.165.142a.918.918,0,0,1,.335.7v1.9a.953.953,0,0,1-.711.9l-.249.073-.08.235a9.768,9.768,0,0,1-1.417,2.716,6.308,6.308,0,0,1-.419.513L21,17.536V19.5a2.187,2.187,0,0,0,1.283,1.975l4.777,2.271A3.307,3.307,0,0,1,29,26.728Z" transform="translate(0 -2.5)"/></svg>