<svg xmlns="http://www.w3.org/2000/svg" width="49.101" height="49.102" viewBox="0 0 49.101 49.102">
  <g id="_002-syringe" data-name="002-syringe" transform="translate(-7.798 -2.499)">
    <path id="Trazado_197" data-name="Trazado 197" d="M7.278,48.351A2.563,2.563,0,0,0,10.9,44.726l-.143-.143,1.678-1.678a.719.719,0,1,0-1.017-1.017L9.743,43.566,8.152,41.975,14.326,35.8l1.591,1.591-2.123,2.123a.719.719,0,0,0,1.017,1.017l2.123-2.123,1.9,1.9a2.563,2.563,0,1,0,3.625-3.625l-.361-.361L37.321,21.1a4.37,4.37,0,0,0,.232-5.921l.9-.9a2.568,2.568,0,0,0,.435-3.043L48.9,1.228A.719.719,0,0,0,47.882.211L37.867,10.225a2.563,2.563,0,0,0-3.044.436l-.9.9a4.362,4.362,0,0,0-5.921.232L12.786,27.01l-.361-.361A2.563,2.563,0,0,0,8.8,30.274l1.9,1.9L4.527,38.35l-.143-.143A2.563,2.563,0,0,0,.758,41.831ZM35.84,11.679a1.125,1.125,0,0,1,1.591,1.591l-.885.885-1.591-1.591ZM15.393,26.437l2.469,2.469a.719.719,0,1,0,1.017-1.017L16.411,25.42,29.024,12.807a2.925,2.925,0,0,1,4.139,0L36.3,15.947a2.925,2.925,0,0,1,0,4.139l-.391.391-.489-.489a.719.719,0,1,0-1.017,1.017l.489.489-2.153,2.153-1.111-1.111a.719.719,0,1,0-1.017,1.017l1.111,1.111-2.153,2.153-.489-.489a.719.719,0,0,0-1.017,1.017l.489.489L26.4,29.986l-1.111-1.111a.719.719,0,0,0-1.017,1.017L25.386,31l-1.7,1.7-2.437-2.437a.719.719,0,1,0-1.017,1.017l2.437,2.437-1.591,1.591L13.8,28.028Zm-5.577,2.82a1.125,1.125,0,0,1,1.591-1.591L21.443,37.7a1.125,1.125,0,1,1-1.591,1.591l-2.41-2.41L9.817,29.257Zm1.9,3.936,1.591,1.591L7.135,40.958,5.544,39.367ZM1.776,39.224a1.126,1.126,0,0,1,1.591,0l5.868,5.868.652.652A1.125,1.125,0,1,1,8.3,47.334l-6.52-6.52a1.126,1.126,0,0,1,0-1.591Z" transform="translate(7.789 2.499)" fill="#fff"/>
    <g id="XMLID_1497_" transform="translate(7.798 2.898)">
      <g id="XMLID_1687_" transform="translate(0 0)">
        <path id="XMLID_898_" d="M13.138,24.152H11.015a1.415,1.415,0,0,1-.354-2.786V20.78a.284.284,0,0,0-.232-.277,8.5,8.5,0,0,1-3.145-1.3.286.286,0,0,0-.362.031L6.5,19.65a1.413,1.413,0,0,1-2.216,1.716l-1.5-1.5a1.416,1.416,0,0,1,1.72-2.22l.415-.415a.286.286,0,0,0,.031-.362,8.5,8.5,0,0,1-1.3-3.145.284.284,0,0,0-.277-.232H2.786a1.417,1.417,0,0,1-1.422,1.061A1.422,1.422,0,0,1,0,13.115v-2.1A1.415,1.415,0,0,1,1.463,9.6,1.433,1.433,0,0,1,2.78,10.661h.593a.284.284,0,0,0,.277-.232,8.5,8.5,0,0,1,1.3-3.145.286.286,0,0,0-.031-.362l-.415-.415a1.416,1.416,0,0,1-1.72-2.22l1.5-1.5a1.416,1.416,0,0,1,2.22,1.72l.415.415a.286.286,0,0,0,.362.031,8.5,8.5,0,0,1,3.145-1.3.284.284,0,0,0,.232-.277V2.786A1.415,1.415,0,0,1,11.015,0h2.123a1.415,1.415,0,0,1,.354,2.786v.587a.284.284,0,0,0,.232.277,8.5,8.5,0,0,1,3.145,1.3.286.286,0,0,0,.362-.031l.415-.415a1.415,1.415,0,0,1,2.22-1.72l1.5,1.5a1.416,1.416,0,0,1-1.72,2.22l-.415.415a.286.286,0,0,0-.031.362,8.5,8.5,0,0,1,1.3,3.145.284.284,0,0,0,.277.232h.592A1.429,1.429,0,0,1,22.61,9.605h0a1.415,1.415,0,0,1,1.542,1.41v2.123a1.412,1.412,0,0,1-2.781.354H20.78a.284.284,0,0,0-.277.232,8.5,8.5,0,0,1-1.3,3.145.286.286,0,0,0,.031.362l.415.415a1.415,1.415,0,0,1,1.72,2.22l-1.5,1.5a1.412,1.412,0,0,1-2.216-1.716l-.419-.419a.286.286,0,0,0-.362-.031,8.5,8.5,0,0,1-3.145,1.3.284.284,0,0,0-.232.277v.587a1.415,1.415,0,0,1-.354,2.786ZM7.121,18.207a1.233,1.233,0,0,1,.69.211,7.562,7.562,0,0,0,2.8,1.159,1.229,1.229,0,0,1,1,1.2v.9a.59.59,0,0,1-.59.59.472.472,0,1,0,0,.943h2.123a.472.472,0,1,0,0-.943.59.59,0,0,1-.59-.59v-.9a1.229,1.229,0,0,1,1-1.2,7.563,7.563,0,0,0,2.8-1.159,1.231,1.231,0,0,1,1.556.146l.649.649a.569.569,0,0,1,0,.8.486.486,0,0,0-.045.65.472.472,0,0,0,.7.033l1.5-1.5a.472.472,0,0,0-.667-.667l-.015.015a.569.569,0,0,1-.8,0l-.649-.649a1.231,1.231,0,0,1-.146-1.556,7.562,7.562,0,0,0,1.159-2.8,1.229,1.229,0,0,1,1.2-1H21.7a.569.569,0,0,1,.568.568.486.486,0,0,0,.427.491.472.472,0,0,0,.516-.47V11.015a.472.472,0,0,0-.516-.47.486.486,0,0,0-.427.491.569.569,0,0,1-.568.568H20.78a1.229,1.229,0,0,1-1.2-1,7.563,7.563,0,0,0-1.159-2.8,1.231,1.231,0,0,1,.146-1.556l.634-.634a.59.59,0,0,1,.834,0,.472.472,0,0,0,.667-.667l-1.5-1.5a.472.472,0,0,0-.667.667.59.59,0,0,1,0,.834l-.634.634a1.231,1.231,0,0,1-1.556.146,7.562,7.562,0,0,0-2.8-1.159,1.229,1.229,0,0,1-1-1.2v-.9a.59.59,0,0,1,.59-.59.472.472,0,0,0,0-.943H11.015a.472.472,0,0,0,0,.943.59.59,0,0,1,.59.59v.9a1.229,1.229,0,0,1-1,1.2,7.563,7.563,0,0,0-2.8,1.159,1.231,1.231,0,0,1-1.556-.146l-.634-.634a.59.59,0,0,1,0-.834.472.472,0,0,0-.667-.667l-1.5,1.5a.472.472,0,0,0,.667.667.59.59,0,0,1,.834,0l.634.634a1.231,1.231,0,0,1,.146,1.556,7.562,7.562,0,0,0-1.159,2.8,1.229,1.229,0,0,1-1.2,1H2.452a.566.566,0,0,1-.565-.565.488.488,0,0,0-.455-.5.472.472,0,0,0-.488.471v2.1a.488.488,0,0,0,.454.494.472.472,0,0,0,.489-.471.59.59,0,0,1,.59-.59h.9a1.229,1.229,0,0,1,1.2,1,7.563,7.563,0,0,0,1.159,2.8A1.231,1.231,0,0,1,5.588,17.9l-.649.649a.569.569,0,0,1-.8,0l-.015-.015a.472.472,0,0,0-.667.667l1.5,1.5a.472.472,0,0,0,.7-.033.486.486,0,0,0-.045-.65.569.569,0,0,1,0-.8l.649-.649a1.222,1.222,0,0,1,.866-.357Z" transform="translate(0 0)" fill="#fff"/>
      </g>
      <g id="XMLID_1654_" transform="translate(8.273 6.127)">
        <path id="XMLID_895_" d="M177.355,133.84a1.981,1.981,0,1,1,1.981-1.981A1.983,1.983,0,0,1,177.355,133.84Zm0-3.019a1.038,1.038,0,1,0,1.038,1.038A1.039,1.039,0,0,0,177.355,130.821Z" transform="translate(-175.374 -129.878)" fill="#fff"/>
      </g>
      <g id="XMLID_1656_" transform="translate(7.202 13.356)">
        <path id="XMLID_892_" d="M154.381,286.566a1.714,1.714,0,1,1,1.714-1.714A1.716,1.716,0,0,1,154.381,286.566Zm0-2.484a.77.77,0,1,0,.77.771A.771.771,0,0,0,154.381,284.081Z" transform="translate(-152.667 -283.138)" fill="#fff"/>
      </g>
      <g id="XMLID_1104_" transform="translate(12.474 10.503)">
        <path id="XMLID_891_" d="M267.322,228.464a2.912,2.912,0,0,1-2.893-2.573.472.472,0,1,1,.937-.109,1.97,1.97,0,1,0,2.176-2.189.472.472,0,0,1,.1-.938,2.913,2.913,0,0,1-.323,5.809Z" transform="translate(-264.426 -222.653)" fill="#fff"/>
      </g>
      <g id="XMLID_1101_" transform="translate(14.293 7.636)">
        <path id="XMLID_890_" d="M303.472,162.823a.472.472,0,1,1,.333-.138A.475.475,0,0,1,303.472,162.823Z" transform="translate(-303 -161.88)" fill="#fff"/>
      </g>
      <g id="XMLID_1094_" transform="translate(11.604 17.218)">
        <path id="XMLID_889_" d="M246.472,365.943a.472.472,0,1,1,.333-.138A.475.475,0,0,1,246.472,365.943Z" transform="translate(-246 -365)" fill="#fff"/>
      </g>
      <g id="XMLID_1660_" transform="translate(6.306 11.611)">
        <path id="XMLID_888_" d="M134.142,247.073a.472.472,0,1,1,.334-.138A.475.475,0,0,1,134.142,247.073Z" transform="translate(-133.67 -246.13)" fill="#fff"/>
      </g>
      <g id="XMLID_1493_" transform="translate(13.167 11.209)">
        <path id="XMLID_887_" d="M279.592,238.563a.472.472,0,1,1,.333-.138A.475.475,0,0,1,279.592,238.563Z" transform="translate(-279.12 -237.62)" fill="#fff"/>
      </g>
    </g>
  </g>
</svg>
